<svg viewBox="0 0 100 100" xmlns="http://www.w3.org/2000/svg" version="1.1">
    <defs>
        <linearGradient id="sw-gradient" x1="0" x2="1" y1="1" y2="0">
        <stop id="stop1" stop-color="rgba(248, 117, 55, 1)" offset="0%"></stop>
        <stop id="stop2" stop-color="rgba(251, 168, 31, 1)" offset="100%"></stop>
        </linearGradient>
    </defs>
    <path fill="#FBA81F" d="M6.5,-7.4C10.9,-5.8,18.5,-7.2,19.1,-6.1C19.6,-5,13.1,-1.4,10.4,2.3C7.7,6,8.9,9.9,7.8,11.7C6.7,13.6,3.3,13.3,1.4,11.4C-0.5,9.4,-1,5.7,-6.6,5.4C-12.3,5,-23.2,8,-23.7,7.5C-24.1,6.9,-14.1,2.8,-13.1,-5.5C-12.1,-13.8,-20.2,-26.3,-19.5,-29.1C-18.8,-31.8,-9.4,-24.8,-4.2,-19.1C1.1,-13.4,2.2,-8.9,6.5,-7.4Z" width="100%" height="100%" transform="translate(50 50)" stroke-width="0" style="transition: all 0.3s ease 0s;"></path>
</svg>